<svg width="814" height="986" viewBox="0 0 814 986" fill="none" xmlns="http://www.w3.org/2000/svg">
<path fill-rule="evenodd" clip-rule="evenodd" d="M305.929 576.373C278.219 574.51 184.275 569.842 178.727 554.094C170.343 530.294 298.541 435.42 328.131 410.587L679.018 116.112L813.097 0L455.913 430.574L610.274 444.721L22.3384 985.95L305.929 576.373Z" fill="#99D420"/>
<path fill-rule="evenodd" clip-rule="evenodd" d="M396.13 225.556C431.311 226.271 467.1 227.842 502.032 231.523L354.418 365.763C258.051 366.797 169.074 383.616 166.161 503.571C164.204 584.136 203.275 617.74 256.775 631.944L169.504 751.164C72.7674 717.333 0.438477 647.081 0.438477 501.98C0.438477 250.658 238.245 222.351 396.13 225.556ZM407.481 642.966C518.475 643.661 625.868 634.193 625.066 503.571C624.539 417.548 581.802 385.891 524.271 373.939L618.564 255.061C716.854 287.859 789.362 356.752 789.362 501.98C789.362 749.731 583.9 784.466 395.096 781.888C352.82 781.311 309.063 779.294 266.75 773.511L407.481 642.966Z" fill="#000200"/>
</svg>
