<svg width="4173" height="1004" viewBox="0 0 4173 1004" fill="none" xmlns="http://www.w3.org/2000/svg">
<path fill-rule="evenodd" clip-rule="evenodd" d="M1.3324 372.268H176.241H470.706C565.784 372.268 572.131 496.036 470.706 496.036H176.241H0V771.517H163.695V635.773H338.771H443.808C574.812 635.773 711.157 591.782 711.157 434.152C711.157 248.805 520.366 232.527 379.289 232.527H338.771H109.131L1.3324 372.268Z" fill="white"/>
<path fill-rule="evenodd" clip-rule="evenodd" d="M1105.93 576.373C1078.22 574.51 984.275 569.842 978.727 554.094C970.343 530.294 1098.54 435.421 1128.13 410.587L1479.02 116.112L1613.1 0L1255.91 430.574L1410.27 444.721L822.338 985.95L1105.93 576.373Z" fill="#99D420"/>
<path fill-rule="evenodd" clip-rule="evenodd" d="M1196.13 225.556C1231.31 226.271 1267.1 227.841 1302.03 231.523L1154.42 365.763C1058.05 366.797 969.074 383.616 966.161 503.571C964.204 584.136 1003.28 617.74 1056.78 631.944L969.504 751.164C872.767 717.333 800.438 647.081 800.438 501.98C800.438 250.658 1038.24 222.351 1196.13 225.556ZM1207.48 642.966C1318.48 643.661 1425.87 634.193 1425.07 503.571C1424.54 417.548 1381.8 385.891 1324.27 373.939L1418.56 255.061C1516.85 287.859 1589.36 356.752 1589.36 501.98C1589.36 749.731 1383.9 784.466 1195.1 781.888C1152.82 781.311 1109.06 779.294 1066.75 773.511L1207.48 642.966Z" fill="white"/>
<path fill-rule="evenodd" clip-rule="evenodd" d="M2869.34 633.847H3324.75L3220.86 775.075H2869.34H2699.92C2699.92 594.716 2699.92 414.36 2699.92 234H2869.34H3324.75L3220.86 375.228H2869.34V439.25H3296.97L3197.7 561.26H2869.34V633.847Z" fill="white"/>
<path fill-rule="evenodd" clip-rule="evenodd" d="M3407.34 372.268H3582.25H3893.45C3988.53 372.268 3995.31 496.036 3893.89 496.036H3582.25H3406V771.517H3569.7V628.299H3768.54H3826.58L3947.42 771.517H4172.81L3999.14 595.595C4081.25 589.144 4143.53 503.802 4140.92 434.152C4134.2 254.524 3950.13 232.527 3809.06 232.527H3768.54H3515.14L3407.34 372.268Z" fill="white"/>
<path fill-rule="evenodd" clip-rule="evenodd" d="M1623.14 231.395L1789.48 230.832L1880.13 569.673L2030.49 275.188C2048.04 239.833 2082.71 226.814 2119.86 226.418C2157.45 226.02 2197.57 238.756 2221.4 292.94L2365.54 567.782L2453.86 230.815H2617.42L2493.51 652.129C2488.17 670.253 2478.94 715.063 2455.23 746.907C2423.05 790.148 2354.62 796.576 2312.04 753.365C2282.74 723.631 2266.5 680.856 2247.98 647.199L2119.64 413.93L1973.81 677.842C1961.02 703.332 1948.64 723.006 1936.37 738.044C1921.27 756.538 1883.46 790.12 1837.96 783.166C1776.64 773.782 1761.3 713.61 1726.2 595.451L1623.14 231.395Z" fill="white"/>
<path fill-rule="evenodd" clip-rule="evenodd" d="M2662.29 884.273V912.561H2724.41C2726.93 912.561 2729.67 912.389 2732.61 912.05C2735.56 911.711 2738.29 911.074 2740.82 910.137C2743.34 909.204 2745.45 907.845 2747.13 906.063C2748.81 904.277 2749.65 901.941 2749.65 899.055C2749.65 895.487 2748.65 892.724 2746.62 890.771C2744.6 888.818 2742.08 887.331 2739.05 886.314C2736.02 885.294 2732.74 884.7 2729.2 884.528C2725.67 884.361 2722.39 884.273 2719.36 884.273H2662.29ZM2732.99 975.502C2736.19 975.502 2739.47 975.247 2742.84 974.736C2746.2 974.226 2749.32 973.334 2752.18 972.062C2755.04 970.786 2757.4 968.96 2759.25 966.581C2761.1 964.204 2762.02 961.059 2762.02 957.153C2762.02 953.417 2761.14 950.272 2759.37 947.725C2757.61 945.177 2755.38 943.18 2752.68 941.737C2749.99 940.294 2746.96 939.274 2743.59 938.679C2740.23 938.085 2736.95 937.787 2733.75 937.787H2662.29V975.502H2732.99ZM2790.81 956.642C2790.81 964.627 2789.04 971.424 2785.51 977.029C2781.97 982.637 2777.47 987.222 2772 990.79C2766.53 994.358 2760.38 996.949 2753.57 998.563C2746.75 1000.18 2740.06 1000.98 2733.5 1000.98H2634.77V858.792H2719.61C2726.17 858.792 2732.9 859.259 2739.81 860.195C2746.71 861.128 2753.02 863.038 2758.74 865.928C2764.46 868.814 2769.18 872.848 2772.88 878.031C2776.59 883.213 2778.43 890.133 2778.43 898.799C2778.43 902.706 2777.51 906.613 2775.66 910.52C2773.81 914.427 2771.62 917.827 2769.09 920.713C2772.12 922.411 2774.99 924.579 2777.68 927.211C2780.37 929.846 2782.69 932.776 2784.62 936.004C2786.56 939.23 2788.07 942.586 2789.17 946.07C2790.26 949.551 2790.81 953.075 2790.81 956.642Z" fill="white"/>
<path fill-rule="evenodd" clip-rule="evenodd" d="M2972.97 858.792H3000.73V933.823C3000.73 945.748 2998.48 956.015 2993.98 964.627C2989.48 973.24 2983.63 980.321 2976.41 985.87C2969.19 991.418 2960.92 995.559 2951.58 998.291C2942.24 1001.02 2932.73 1002.39 2923.05 1002.39C2913.37 1002.39 2903.87 1001.02 2894.53 998.291C2885.19 995.559 2876.91 991.418 2869.7 985.87C2862.48 980.321 2856.67 973.24 2852.25 964.627C2847.84 956.015 2845.63 945.748 2845.63 933.823V858.792H2873.39V930.342C2873.39 938.458 2874.79 945.5 2877.59 951.46C2880.4 957.425 2884.13 962.308 2888.8 966.117C2893.47 969.927 2898.77 972.787 2904.72 974.69C2910.66 976.596 2916.77 977.546 2923.05 977.546C2929.34 977.546 2935.45 976.596 2941.39 974.69C2947.33 972.787 2952.64 969.927 2957.31 966.117C2961.98 962.308 2965.76 957.425 2968.64 951.46C2971.53 945.5 2972.97 938.458 2972.97 930.342V858.792Z" fill="white"/>
<path fill-rule="evenodd" clip-rule="evenodd" d="M3276.45 1000.24V860.517H3303.91V1000.24H3276.45Z" fill="white"/>
<path fill-rule="evenodd" clip-rule="evenodd" d="M3542.91 861.739V1001.52L3403.66 905.281V998.875H3375.61V857.03L3514.85 956.065V861.739H3542.91Z" fill="white"/>
<path fill-rule="evenodd" clip-rule="evenodd" d="M3616.77 860.917H3755.18V883.204H3642.03V919.183H3735.47V939.165H3641.78V974.328H3755.18V999.09H3616.77V860.917Z" fill="white"/>
<path fill-rule="evenodd" clip-rule="evenodd" d="M3213.26 957.569C3213.26 977.901 3204.37 985.815 3188.99 993.451C3181.74 997.049 3173.52 999.65 3164.35 1001.24C3155.18 1002.83 3145.78 1003.63 3136.17 1003.63C3114.88 1003.63 3078.74 999.003 3059.9 992.505V971.289C3084.45 978.193 3146.93 986.816 3171 976.005C3183.8 970.255 3187.1 965.812 3186.61 958.535C3185.86 947.349 3171.89 943.932 3157.27 941.31C3127.19 935.91 3091.61 945.664 3068.63 919.075C3064 913.711 3061.69 906.841 3061.69 898.464C3061.69 891.258 3063.83 885.058 3068.11 879.863C3072.39 874.667 3077.98 870.435 3084.89 867.169C3091.79 863.9 3099.47 861.168 3108.09 859.879C3134.58 855.915 3174.59 857.929 3200.37 865.524V886.773C3188.92 883.424 3171.01 877.956 3131.51 879.668C3120.55 880.141 3089.45 881.343 3089.96 896.581C3090.39 909.137 3107.83 914.909 3122.5 916.057C3143.18 917.672 3178.33 912.936 3199.52 930.882C3206.76 937.018 3213.26 947.782 3213.26 957.569Z" fill="white"/>
<path fill-rule="evenodd" clip-rule="evenodd" d="M3966.79 957.569C3966.79 977.901 3957.9 985.815 3942.52 993.451C3935.27 997.049 3927.06 999.65 3917.88 1001.24C3908.71 1002.83 3899.31 1003.63 3889.71 1003.63C3868.41 1003.63 3832.28 999.003 3813.43 992.505V971.289C3837.98 978.193 3900.47 986.816 3924.53 976.005C3937.33 970.255 3940.64 965.812 3940.15 958.535C3939.4 947.349 3925.42 943.932 3910.8 941.31C3880.72 935.91 3845.14 945.664 3822.17 919.075C3817.54 913.711 3815.22 906.841 3815.22 898.464C3815.22 891.258 3817.36 885.058 3821.65 879.863C3825.93 874.667 3831.52 870.435 3838.42 867.169C3845.32 863.9 3853.01 861.168 3861.62 859.879C3888.11 855.915 3928.13 857.929 3953.9 865.524V886.773C3942.46 883.424 3924.55 877.956 3885.04 879.668C3874.09 880.141 3842.98 881.343 3843.5 896.581C3843.92 909.137 3861.37 914.909 3876.04 916.057C3896.71 917.672 3931.86 912.936 3953.05 930.882C3960.3 937.018 3966.79 947.782 3966.79 957.569Z" fill="white"/>
<path fill-rule="evenodd" clip-rule="evenodd" d="M4172.55 957.569C4172.55 977.901 4163.65 985.815 4148.28 993.451C4141.03 997.049 4132.81 999.65 4123.64 1001.24C4114.47 1002.83 4105.07 1003.63 4095.46 1003.63C4074.17 1003.63 4038.03 999.003 4019.18 992.505V971.289C4043.74 978.193 4106.22 986.816 4130.29 976.005C4143.09 970.255 4146.39 965.812 4145.9 958.535C4145.15 947.349 4131.17 943.932 4116.55 941.31C4086.47 935.91 4050.9 945.664 4027.92 919.075C4023.29 913.711 4020.97 906.841 4020.97 898.464C4020.97 891.258 4023.11 885.058 4027.4 879.863C4031.68 874.667 4037.27 870.435 4044.17 867.169C4051.08 863.9 4058.76 861.168 4067.37 859.879C4093.86 855.915 4133.88 857.929 4159.66 865.524V886.773C4148.21 883.424 4130.3 877.956 4090.79 879.668C4079.84 880.141 4048.74 881.343 4049.25 896.581C4049.68 909.137 4067.12 914.909 4081.79 916.057C4102.47 917.672 4137.62 912.936 4158.81 930.882C4166.05 937.018 4172.55 947.782 4172.55 957.569Z" fill="white"/>
</svg>
