<svg width="813" height="986" viewBox="0 0 813 986" fill="none" xmlns="http://www.w3.org/2000/svg">
<path fill-rule="evenodd" clip-rule="evenodd" d="M305.49 576.373C277.78 574.51 183.836 569.842 178.288 554.094C169.904 530.294 298.103 435.421 327.692 410.587L678.58 116.112L812.659 0L455.475 430.574L609.836 444.721L21.8999 985.95L305.49 576.373Z" fill="#99D420"/>
<path fill-rule="evenodd" clip-rule="evenodd" d="M395.691 225.556C430.873 226.271 466.661 227.841 501.594 231.523L353.979 365.763C257.612 366.797 168.636 383.616 165.722 503.571C163.765 584.136 202.837 617.74 256.337 631.944L169.065 751.164C72.3289 717.333 0 647.081 0 501.98C0 250.658 237.806 222.351 395.691 225.556ZM407.043 642.966C518.037 643.661 625.429 634.193 624.627 503.571C624.1 417.548 581.364 385.891 523.833 373.939L618.126 255.061C716.416 287.859 788.923 356.752 788.923 501.98C788.923 749.731 583.462 784.466 394.658 781.888C352.381 781.311 308.625 779.294 266.312 773.511L407.043 642.966Z" fill="white"/>
</svg>
